<mxfile host="app.diagrams.net" modified="2024-03-29T02:55:30.956Z" agent="Mozilla/5.0 (Windows NT 10.0; Win64; x64) AppleWebKit/537.36 (KHTML, like Gecko) Chrome/123.0.0.0 Safari/537.36" etag="7q2gGTCy07UKj6VT6U0s" version="24.2.1" type="device">
  <diagram name="Page-1" id="gfT4woPlL42nuSpytQJT">
    <mxGraphModel dx="2336" dy="619" grid="1" gridSize="10" guides="1" tooltips="1" connect="1" arrows="1" fold="1" page="1" pageScale="1" pageWidth="1169" pageHeight="1654" math="0" shadow="0">
      <root>
        <mxCell id="0" />
        <mxCell id="1" parent="0" />
        <mxCell id="ihMiCFYkO7dbg06-b7gJ-1" value="User" style="shape=umlLifeline;perimeter=lifelinePerimeter;whiteSpace=wrap;html=1;container=1;dropTarget=0;collapsible=0;recursiveResize=0;outlineConnect=0;portConstraint=eastwest;newEdgeStyle={&quot;edgeStyle&quot;:&quot;elbowEdgeStyle&quot;,&quot;elbow&quot;:&quot;vertical&quot;,&quot;curved&quot;:0,&quot;rounded&quot;:0};fillColor=#bac8d3;strokeColor=#23445d;shadow=1;" parent="1" vertex="1">
          <mxGeometry x="70" y="527" width="100" height="553" as="geometry" />
        </mxCell>
        <mxCell id="ihMiCFYkO7dbg06-b7gJ-2" value="" style="html=1;points=[[0,0,0,0,5],[0,1,0,0,-5],[1,0,0,0,5],[1,1,0,0,-5]];perimeter=orthogonalPerimeter;outlineConnect=0;targetShapes=umlLifeline;portConstraint=eastwest;newEdgeStyle={&quot;curved&quot;:0,&quot;rounded&quot;:0};fillColor=#bac8d3;strokeColor=#23445d;" parent="ihMiCFYkO7dbg06-b7gJ-1" vertex="1">
          <mxGeometry x="45" y="70" width="10" height="50" as="geometry" />
        </mxCell>
        <mxCell id="ihMiCFYkO7dbg06-b7gJ-3" value="" style="shape=umlDestroy;whiteSpace=wrap;html=1;strokeWidth=3;targetShapes=umlLifeline;fillColor=#bac8d3;strokeColor=#23445d;aspect=fixed;fontStyle=0;shadow=1;" parent="ihMiCFYkO7dbg06-b7gJ-1" vertex="1">
          <mxGeometry x="45" y="553" width="10" height="10" as="geometry" />
        </mxCell>
        <mxCell id="ihMiCFYkO7dbg06-b7gJ-4" value="UI" style="shape=umlLifeline;perimeter=lifelinePerimeter;whiteSpace=wrap;html=1;container=1;dropTarget=0;collapsible=0;recursiveResize=0;outlineConnect=0;portConstraint=eastwest;newEdgeStyle={&quot;edgeStyle&quot;:&quot;elbowEdgeStyle&quot;,&quot;elbow&quot;:&quot;vertical&quot;,&quot;curved&quot;:0,&quot;rounded&quot;:0};fillColor=#bac8d3;strokeColor=#23445d;shadow=1;" parent="1" vertex="1">
          <mxGeometry x="230" y="527" width="100" height="553" as="geometry" />
        </mxCell>
        <mxCell id="ihMiCFYkO7dbg06-b7gJ-5" value="" style="html=1;points=[[0,0,0,0,5],[0,1,0,0,-5],[1,0,0,0,5],[1,1,0,0,-5]];perimeter=orthogonalPerimeter;outlineConnect=0;targetShapes=umlLifeline;portConstraint=eastwest;newEdgeStyle={&quot;curved&quot;:0,&quot;rounded&quot;:0};fillColor=#bac8d3;strokeColor=#23445d;" parent="ihMiCFYkO7dbg06-b7gJ-4" vertex="1">
          <mxGeometry x="45" y="70" width="10" height="80" as="geometry" />
        </mxCell>
        <mxCell id="ihMiCFYkO7dbg06-b7gJ-6" value="" style="html=1;points=[[0,0,0,0,5],[0,1,0,0,-5],[1,0,0,0,5],[1,1,0,0,-5]];perimeter=orthogonalPerimeter;outlineConnect=0;targetShapes=umlLifeline;portConstraint=eastwest;newEdgeStyle={&quot;curved&quot;:0,&quot;rounded&quot;:0};fillColor=#bac8d3;strokeColor=#23445d;" parent="ihMiCFYkO7dbg06-b7gJ-4" vertex="1">
          <mxGeometry x="45" y="210" width="10" height="30" as="geometry" />
        </mxCell>
        <mxCell id="ihMiCFYkO7dbg06-b7gJ-7" value="" style="shape=umlDestroy;whiteSpace=wrap;html=1;strokeWidth=3;targetShapes=umlLifeline;fillColor=#bac8d3;strokeColor=#23445d;aspect=fixed;fontStyle=0;shadow=1;" parent="ihMiCFYkO7dbg06-b7gJ-4" vertex="1">
          <mxGeometry x="45" y="553" width="10" height="10" as="geometry" />
        </mxCell>
        <mxCell id="ihMiCFYkO7dbg06-b7gJ-8" value="API" style="shape=umlLifeline;perimeter=lifelinePerimeter;whiteSpace=wrap;html=1;container=1;dropTarget=0;collapsible=0;recursiveResize=0;outlineConnect=0;portConstraint=eastwest;newEdgeStyle={&quot;edgeStyle&quot;:&quot;elbowEdgeStyle&quot;,&quot;elbow&quot;:&quot;vertical&quot;,&quot;curved&quot;:0,&quot;rounded&quot;:0};fillColor=#bac8d3;strokeColor=#23445d;shadow=1;" parent="1" vertex="1">
          <mxGeometry x="370" y="527" width="100" height="553" as="geometry" />
        </mxCell>
        <mxCell id="ihMiCFYkO7dbg06-b7gJ-9" value="" style="html=1;points=[[0,0,0,0,5],[0,1,0,0,-5],[1,0,0,0,5],[1,1,0,0,-5]];perimeter=orthogonalPerimeter;outlineConnect=0;targetShapes=umlLifeline;portConstraint=eastwest;newEdgeStyle={&quot;curved&quot;:0,&quot;rounded&quot;:0};fillColor=#bac8d3;strokeColor=#23445d;" parent="ihMiCFYkO7dbg06-b7gJ-8" vertex="1">
          <mxGeometry x="45" y="130" width="10" height="380" as="geometry" />
        </mxCell>
        <mxCell id="ihMiCFYkO7dbg06-b7gJ-10" value="" style="shape=umlDestroy;whiteSpace=wrap;html=1;strokeWidth=3;targetShapes=umlLifeline;fillColor=#bac8d3;strokeColor=#23445d;aspect=fixed;fontStyle=0;shadow=1;" parent="ihMiCFYkO7dbg06-b7gJ-8" vertex="1">
          <mxGeometry x="45" y="553" width="10" height="10" as="geometry" />
        </mxCell>
        <mxCell id="ihMiCFYkO7dbg06-b7gJ-11" value="Database" style="shape=umlLifeline;perimeter=lifelinePerimeter;whiteSpace=wrap;html=1;container=1;dropTarget=0;collapsible=0;recursiveResize=0;outlineConnect=0;portConstraint=eastwest;newEdgeStyle={&quot;edgeStyle&quot;:&quot;elbowEdgeStyle&quot;,&quot;elbow&quot;:&quot;vertical&quot;,&quot;curved&quot;:0,&quot;rounded&quot;:0};fillColor=#bac8d3;strokeColor=#23445d;shadow=1;" parent="1" vertex="1">
          <mxGeometry x="520" y="527" width="100" height="553" as="geometry" />
        </mxCell>
        <mxCell id="ihMiCFYkO7dbg06-b7gJ-12" value="" style="html=1;points=[[0,0,0,0,5],[0,1,0,0,-5],[1,0,0,0,5],[1,1,0,0,-5]];perimeter=orthogonalPerimeter;outlineConnect=0;targetShapes=umlLifeline;portConstraint=eastwest;newEdgeStyle={&quot;curved&quot;:0,&quot;rounded&quot;:0};fillColor=#bac8d3;strokeColor=#23445d;" parent="ihMiCFYkO7dbg06-b7gJ-11" vertex="1">
          <mxGeometry x="45" y="140" width="10" height="40" as="geometry" />
        </mxCell>
        <mxCell id="ihMiCFYkO7dbg06-b7gJ-13" value="" style="html=1;points=[[0,0,0,0,5],[0,1,0,0,-5],[1,0,0,0,5],[1,1,0,0,-5]];perimeter=orthogonalPerimeter;outlineConnect=0;targetShapes=umlLifeline;portConstraint=eastwest;newEdgeStyle={&quot;curved&quot;:0,&quot;rounded&quot;:0};fillColor=#bac8d3;strokeColor=#23445d;" parent="ihMiCFYkO7dbg06-b7gJ-11" vertex="1">
          <mxGeometry x="45" y="456" width="10" height="30" as="geometry" />
        </mxCell>
        <mxCell id="ihMiCFYkO7dbg06-b7gJ-14" value="" style="shape=umlDestroy;whiteSpace=wrap;html=1;strokeWidth=3;targetShapes=umlLifeline;fillColor=#bac8d3;strokeColor=#23445d;aspect=fixed;fontStyle=0;shadow=1;" parent="ihMiCFYkO7dbg06-b7gJ-11" vertex="1">
          <mxGeometry x="45" y="553" width="10" height="10" as="geometry" />
        </mxCell>
        <mxCell id="ihMiCFYkO7dbg06-b7gJ-15" value="Click on delete icon&lt;div&gt;on material ui&lt;/div&gt;" style="html=1;verticalAlign=bottom;endArrow=block;curved=0;rounded=0;shadow=1;" parent="1" edge="1">
          <mxGeometry width="80" relative="1" as="geometry">
            <mxPoint x="125" y="611.5" as="sourcePoint" />
            <mxPoint x="275" y="611.5" as="targetPoint" />
          </mxGeometry>
        </mxCell>
        <mxCell id="ihMiCFYkO7dbg06-b7gJ-16" value="Conform pop up" style="html=1;verticalAlign=bottom;endArrow=block;curved=0;rounded=0;shadow=1;" parent="1" edge="1">
          <mxGeometry width="80" relative="1" as="geometry">
            <mxPoint x="125" y="636.0000000000001" as="sourcePoint" />
            <mxPoint x="275" y="636.0000000000001" as="targetPoint" />
          </mxGeometry>
        </mxCell>
        <mxCell id="ihMiCFYkO7dbg06-b7gJ-17" value="POST:material/delete&lt;div&gt;{material,token}&lt;/div&gt;" style="html=1;verticalAlign=bottom;endArrow=block;curved=0;rounded=0;shadow=1;" parent="1" edge="1">
          <mxGeometry width="80" relative="1" as="geometry">
            <mxPoint x="285" y="666" as="sourcePoint" />
            <mxPoint x="415" y="666" as="targetPoint" />
          </mxGeometry>
        </mxCell>
        <mxCell id="ihMiCFYkO7dbg06-b7gJ-18" value="Find user" style="html=1;verticalAlign=bottom;endArrow=block;curved=0;rounded=0;shadow=1;" parent="1" edge="1">
          <mxGeometry width="80" relative="1" as="geometry">
            <mxPoint x="425" y="677" as="sourcePoint" />
            <mxPoint x="565" y="677" as="targetPoint" />
          </mxGeometry>
        </mxCell>
        <mxCell id="ihMiCFYkO7dbg06-b7gJ-19" value="User" style="html=1;verticalAlign=bottom;endArrow=open;dashed=1;endSize=8;curved=0;rounded=0;shadow=1;" parent="1" edge="1">
          <mxGeometry relative="1" as="geometry">
            <mxPoint x="565.0000000000001" y="698.5" as="sourcePoint" />
            <mxPoint x="424.9999999999999" y="698.5" as="targetPoint" />
          </mxGeometry>
        </mxCell>
        <mxCell id="ihMiCFYkO7dbg06-b7gJ-20" value="ALT" style="shape=umlFrame;whiteSpace=wrap;html=1;pointerEvents=0;width=60;height=30;fillColor=#b1ddf0;strokeColor=#10739e;shadow=1;fontStyle=1" parent="1" vertex="1">
          <mxGeometry y="708" width="800" height="362" as="geometry" />
        </mxCell>
        <mxCell id="ihMiCFYkO7dbg06-b7gJ-21" value="&lt;b&gt;&lt;font color=&quot;#cc0000&quot;&gt;[Unauthorized]&lt;/font&gt;&lt;/b&gt;" style="text;html=1;align=center;verticalAlign=middle;resizable=0;points=[];autosize=1;strokeColor=none;fillColor=none;shadow=1;" parent="1" vertex="1">
          <mxGeometry x="-8" y="735" width="110" height="30" as="geometry" />
        </mxCell>
        <mxCell id="ihMiCFYkO7dbg06-b7gJ-22" value="401-unauthorized" style="html=1;verticalAlign=bottom;endArrow=open;dashed=1;endSize=8;curved=0;rounded=0;shadow=1;" parent="1" edge="1">
          <mxGeometry relative="1" as="geometry">
            <mxPoint x="415" y="744.0000000000001" as="sourcePoint" />
            <mxPoint x="285" y="744.0000000000001" as="targetPoint" />
          </mxGeometry>
        </mxCell>
        <mxCell id="ihMiCFYkO7dbg06-b7gJ-23" value="user not authorized" style="html=1;verticalAlign=bottom;endArrow=open;dashed=1;endSize=8;curved=0;rounded=0;shadow=1;" parent="1" edge="1">
          <mxGeometry relative="1" as="geometry">
            <mxPoint x="275" y="758" as="sourcePoint" />
            <mxPoint x="125" y="758" as="targetPoint" />
          </mxGeometry>
        </mxCell>
        <mxCell id="ihMiCFYkO7dbg06-b7gJ-24" value="" style="html=1;points=[[0,0,0,0,5],[0,1,0,0,-5],[1,0,0,0,5],[1,1,0,0,-5]];perimeter=orthogonalPerimeter;outlineConnect=0;targetShapes=umlLifeline;portConstraint=eastwest;newEdgeStyle={&quot;curved&quot;:0,&quot;rounded&quot;:0};fillColor=#bac8d3;strokeColor=#23445d;shadow=1;" parent="1" vertex="1">
          <mxGeometry x="115" y="750" width="10" height="20" as="geometry" />
        </mxCell>
        <mxCell id="ihMiCFYkO7dbg06-b7gJ-25" value="" style="endArrow=none;dashed=1;html=1;rounded=0;fillColor=#b1ddf0;strokeColor=#10739e;fontStyle=1;exitX=0;exitY=0.305;exitDx=0;exitDy=0;exitPerimeter=0;entryX=1.001;entryY=0.202;entryDx=0;entryDy=0;entryPerimeter=0;shadow=1;" parent="1" target="ihMiCFYkO7dbg06-b7gJ-20" edge="1">
          <mxGeometry width="50" height="50" relative="1" as="geometry">
            <mxPoint x="1.9499999999997726" y="780.7399999999999" as="sourcePoint" />
            <mxPoint x="649.9999999999998" y="779.9999999999999" as="targetPoint" />
          </mxGeometry>
        </mxCell>
        <mxCell id="ihMiCFYkO7dbg06-b7gJ-26" value="500-server error" style="html=1;verticalAlign=bottom;endArrow=open;dashed=1;endSize=8;curved=0;rounded=0;entryX=1;entryY=0;entryDx=0;entryDy=5;entryPerimeter=0;shadow=1;" parent="1" edge="1">
          <mxGeometry relative="1" as="geometry">
            <mxPoint x="415" y="920" as="sourcePoint" />
            <mxPoint x="285" y="920" as="targetPoint" />
          </mxGeometry>
        </mxCell>
        <mxCell id="ihMiCFYkO7dbg06-b7gJ-27" value="" style="html=1;points=[[0,0,0,0,5],[0,1,0,0,-5],[1,0,0,0,5],[1,1,0,0,-5]];perimeter=orthogonalPerimeter;outlineConnect=0;targetShapes=umlLifeline;portConstraint=eastwest;newEdgeStyle={&quot;curved&quot;:0,&quot;rounded&quot;:0};fillColor=#bac8d3;strokeColor=#23445d;shadow=1;" parent="1" vertex="1">
          <mxGeometry x="275" y="901" width="10" height="35" as="geometry" />
        </mxCell>
        <mxCell id="ihMiCFYkO7dbg06-b7gJ-28" value="Internal server error" style="html=1;verticalAlign=bottom;endArrow=open;dashed=1;endSize=8;curved=0;rounded=0;shadow=1;" parent="1" edge="1">
          <mxGeometry relative="1" as="geometry">
            <mxPoint x="275" y="927" as="sourcePoint" />
            <mxPoint x="125" y="927" as="targetPoint" />
          </mxGeometry>
        </mxCell>
        <mxCell id="ihMiCFYkO7dbg06-b7gJ-29" value="" style="html=1;points=[[0,0,0,0,5],[0,1,0,0,-5],[1,0,0,0,5],[1,1,0,0,-5]];perimeter=orthogonalPerimeter;outlineConnect=0;targetShapes=umlLifeline;portConstraint=eastwest;newEdgeStyle={&quot;curved&quot;:0,&quot;rounded&quot;:0};fillColor=#bac8d3;strokeColor=#23445d;shadow=1;" parent="1" vertex="1">
          <mxGeometry x="115" y="912" width="10" height="23" as="geometry" />
        </mxCell>
        <mxCell id="ihMiCFYkO7dbg06-b7gJ-30" value="&lt;b&gt;&lt;font color=&quot;#66b2ff&quot;&gt;[Authorized]&lt;/font&gt;&lt;/b&gt;" style="text;html=1;align=center;verticalAlign=middle;resizable=0;points=[];autosize=1;strokeColor=none;fillColor=none;shadow=1;" parent="1" vertex="1">
          <mxGeometry x="-4" y="778" width="90" height="30" as="geometry" />
        </mxCell>
        <mxCell id="ihMiCFYkO7dbg06-b7gJ-31" value="" style="html=1;points=[[0,0,0,0,5],[0,1,0,0,-5],[1,0,0,0,5],[1,1,0,0,-5]];perimeter=orthogonalPerimeter;outlineConnect=0;targetShapes=umlLifeline;portConstraint=eastwest;newEdgeStyle={&quot;curved&quot;:0,&quot;rounded&quot;:0};fillColor=#bac8d3;strokeColor=#23445d;shadow=1;" parent="1" vertex="1">
          <mxGeometry x="275" y="1002" width="10" height="32" as="geometry" />
        </mxCell>
        <mxCell id="ihMiCFYkO7dbg06-b7gJ-32" value="" style="html=1;points=[[0,0,0,0,5],[0,1,0,0,-5],[1,0,0,0,5],[1,1,0,0,-5]];perimeter=orthogonalPerimeter;outlineConnect=0;targetShapes=umlLifeline;portConstraint=eastwest;newEdgeStyle={&quot;curved&quot;:0,&quot;rounded&quot;:0};fillColor=#bac8d3;strokeColor=#23445d;shadow=1;" parent="1" vertex="1">
          <mxGeometry x="115" y="1014" width="10" height="20" as="geometry" />
        </mxCell>
        <mxCell id="ihMiCFYkO7dbg06-b7gJ-33" value="Material deleted" style="html=1;verticalAlign=bottom;endArrow=open;dashed=1;endSize=8;curved=0;rounded=0;shadow=1;" parent="1" edge="1">
          <mxGeometry relative="1" as="geometry">
            <mxPoint x="275" y="1024" as="sourcePoint" />
            <mxPoint x="125" y="1024" as="targetPoint" />
          </mxGeometry>
        </mxCell>
        <mxCell id="ihMiCFYkO7dbg06-b7gJ-34" value="Delete Material" style="html=1;verticalAlign=bottom;endArrow=block;curved=0;rounded=0;shadow=1;" parent="1" edge="1">
          <mxGeometry width="80" relative="1" as="geometry">
            <mxPoint x="425" y="854.78" as="sourcePoint" />
            <mxPoint x="725" y="854.78" as="targetPoint" />
          </mxGeometry>
        </mxCell>
        <mxCell id="ihMiCFYkO7dbg06-b7gJ-35" value="" style="html=1;points=[[0,0,0,0,5],[0,1,0,0,-5],[1,0,0,0,5],[1,1,0,0,-5]];perimeter=orthogonalPerimeter;outlineConnect=0;targetShapes=umlLifeline;portConstraint=eastwest;newEdgeStyle={&quot;curved&quot;:0,&quot;rounded&quot;:0};fillColor=#bac8d3;strokeColor=#23445d;shadow=1;" parent="1" vertex="1">
          <mxGeometry x="565" y="798" width="10" height="29" as="geometry" />
        </mxCell>
        <mxCell id="ihMiCFYkO7dbg06-b7gJ-36" value="ALT" style="shape=umlFrame;whiteSpace=wrap;html=1;pointerEvents=0;fillColor=#b1ddf0;strokeColor=#10739e;shadow=1;fontStyle=1" parent="1" vertex="1">
          <mxGeometry x="10" y="870" width="780" height="180" as="geometry" />
        </mxCell>
        <mxCell id="ihMiCFYkO7dbg06-b7gJ-37" value="" style="endArrow=none;dashed=1;html=1;rounded=0;exitX=-0.002;exitY=0.366;exitDx=0;exitDy=0;exitPerimeter=0;fillColor=#b1ddf0;strokeColor=#10739e;entryX=1;entryY=0.371;entryDx=0;entryDy=0;entryPerimeter=0;shadow=1;" parent="1" edge="1">
          <mxGeometry width="50" height="50" relative="1" as="geometry">
            <mxPoint x="8.440000000000055" y="943.5000000000002" as="sourcePoint" />
            <mxPoint x="790" y="944.7500000000002" as="targetPoint" />
          </mxGeometry>
        </mxCell>
        <mxCell id="ihMiCFYkO7dbg06-b7gJ-38" value="200-Successfull" style="html=1;verticalAlign=bottom;endArrow=open;dashed=1;endSize=8;curved=0;rounded=0;entryX=1;entryY=0;entryDx=0;entryDy=5;entryPerimeter=0;shadow=1;" parent="1" edge="1">
          <mxGeometry relative="1" as="geometry">
            <mxPoint x="415" y="1009.22" as="sourcePoint" />
            <mxPoint x="285" y="1009.22" as="targetPoint" />
          </mxGeometry>
        </mxCell>
        <mxCell id="ihMiCFYkO7dbg06-b7gJ-39" value="&lt;b&gt;&lt;font color=&quot;#cc0000&quot;&gt;[Cloud error]&lt;/font&gt;&lt;/b&gt;" style="text;html=1;align=center;verticalAlign=middle;resizable=0;points=[];autosize=1;strokeColor=none;fillColor=none;shadow=1;" parent="1" vertex="1">
          <mxGeometry x="2" y="901" width="100" height="30" as="geometry" />
        </mxCell>
        <mxCell id="ihMiCFYkO7dbg06-b7gJ-40" value="&lt;b&gt;&lt;font color=&quot;#66b2ff&quot;&gt;[Successfull]&lt;/font&gt;&lt;/b&gt;" style="text;html=1;align=center;verticalAlign=middle;resizable=0;points=[];autosize=1;strokeColor=none;fillColor=none;shadow=1;" parent="1" vertex="1">
          <mxGeometry x="2" y="941" width="100" height="30" as="geometry" />
        </mxCell>
        <mxCell id="ihMiCFYkO7dbg06-b7gJ-41" value="Firebase&lt;div&gt;Storage&lt;/div&gt;" style="shape=umlLifeline;perimeter=lifelinePerimeter;whiteSpace=wrap;html=1;container=1;dropTarget=0;collapsible=0;recursiveResize=0;outlineConnect=0;portConstraint=eastwest;newEdgeStyle={&quot;edgeStyle&quot;:&quot;elbowEdgeStyle&quot;,&quot;elbow&quot;:&quot;vertical&quot;,&quot;curved&quot;:0,&quot;rounded&quot;:0};fillColor=#bac8d3;strokeColor=#23445d;shadow=1;" parent="1" vertex="1">
          <mxGeometry x="680" y="527" width="100" height="553" as="geometry" />
        </mxCell>
        <mxCell id="ihMiCFYkO7dbg06-b7gJ-42" value="" style="html=1;points=[[0,0,0,0,5],[0,1,0,0,-5],[1,0,0,0,5],[1,1,0,0,-5]];perimeter=orthogonalPerimeter;outlineConnect=0;targetShapes=umlLifeline;portConstraint=eastwest;newEdgeStyle={&quot;curved&quot;:0,&quot;rounded&quot;:0};fillColor=#bac8d3;strokeColor=#23445d;" parent="ihMiCFYkO7dbg06-b7gJ-41" vertex="1">
          <mxGeometry x="45" y="300" width="10" height="150" as="geometry" />
        </mxCell>
        <mxCell id="ihMiCFYkO7dbg06-b7gJ-43" value="" style="shape=umlDestroy;whiteSpace=wrap;html=1;strokeWidth=3;targetShapes=umlLifeline;fillColor=#bac8d3;strokeColor=#23445d;aspect=fixed;fontStyle=0;shadow=1;" parent="ihMiCFYkO7dbg06-b7gJ-41" vertex="1">
          <mxGeometry x="45" y="553" width="10" height="10" as="geometry" />
        </mxCell>
        <mxCell id="ihMiCFYkO7dbg06-b7gJ-44" value="Find material" style="html=1;verticalAlign=bottom;endArrow=block;curved=0;rounded=0;shadow=1;" parent="1" edge="1">
          <mxGeometry width="80" relative="1" as="geometry">
            <mxPoint x="425" y="804.3299999999999" as="sourcePoint" />
            <mxPoint x="565" y="804.3299999999999" as="targetPoint" />
          </mxGeometry>
        </mxCell>
        <mxCell id="ihMiCFYkO7dbg06-b7gJ-45" value="Unsuccessful" style="html=1;verticalAlign=bottom;endArrow=open;dashed=1;endSize=8;curved=0;rounded=0;shadow=1;" parent="1" edge="1">
          <mxGeometry relative="1" as="geometry">
            <mxPoint x="725" y="889" as="sourcePoint" />
            <mxPoint x="425" y="889" as="targetPoint" />
          </mxGeometry>
        </mxCell>
        <mxCell id="ihMiCFYkO7dbg06-b7gJ-46" value="Delete material" style="html=1;verticalAlign=bottom;endArrow=block;curved=0;rounded=0;shadow=1;" parent="1" edge="1">
          <mxGeometry width="80" relative="1" as="geometry">
            <mxPoint x="425" y="991.9999999999999" as="sourcePoint" />
            <mxPoint x="565" y="991.9999999999999" as="targetPoint" />
          </mxGeometry>
        </mxCell>
        <mxCell id="ihMiCFYkO7dbg06-b7gJ-47" value="Successful" style="html=1;verticalAlign=bottom;endArrow=open;dashed=1;endSize=8;curved=0;rounded=0;shadow=1;" parent="1" edge="1">
          <mxGeometry relative="1" as="geometry">
            <mxPoint x="725" y="967" as="sourcePoint" />
            <mxPoint x="425" y="967" as="targetPoint" />
          </mxGeometry>
        </mxCell>
        <mxCell id="ihMiCFYkO7dbg06-b7gJ-48" value="Material" style="html=1;verticalAlign=bottom;endArrow=open;dashed=1;endSize=8;curved=0;rounded=0;shadow=1;" parent="1" edge="1">
          <mxGeometry relative="1" as="geometry">
            <mxPoint x="565.0000000000001" y="823" as="sourcePoint" />
            <mxPoint x="424.9999999999999" y="823" as="targetPoint" />
          </mxGeometry>
        </mxCell>
      </root>
    </mxGraphModel>
  </diagram>
</mxfile>
